<?xml version="1.0" standalone="no"?>
<!DOCTYPE svg PUBLIC "-//W3C//DTD SVG 20010904//EN"
 "http://www.w3.org/TR/2001/REC-SVG-20010904/DTD/svg10.dtd">
<svg version="1.0" xmlns="http://www.w3.org/2000/svg"
 width="1200.000000pt" height="1200.000000pt" viewBox="0 0 1200.000000 1200.000000"
 preserveAspectRatio="xMidYMid meet">
<metadata>
Created by potrace 1.16, written by Peter Selinger 2001-2019
</metadata>
<g transform="translate(0.000000,1200.000000) scale(0.100000,-0.100000)"
fill="#000000" stroke="none">
<path d="M8280 8429 c-268 -12 -345 -18 -395 -29 -27 -6 -55 -8 -62 -6 -7 3
-45 -1 -84 -9 -39 -8 -86 -15 -104 -15 -19 0 -81 -15 -137 -34 -57 -19 -128
-39 -158 -45 -49 -10 -327 -115 -530 -200 -125 -53 -421 -201 -490 -245 -36
-23 -95 -56 -131 -74 -37 -17 -142 -75 -235 -128 -93 -54 -189 -108 -214 -121
-25 -13 -94 -55 -155 -93 -60 -38 -132 -82 -158 -97 -27 -15 -63 -38 -80 -50
-18 -12 -88 -56 -157 -97 -69 -42 -165 -104 -213 -138 -124 -89 -177 -119
-190 -111 -27 17 -138 102 -187 145 -148 127 -552 382 -775 489 -83 39 -195
93 -250 120 -129 62 -591 214 -715 235 -68 12 -171 17 -365 18 -237 1 -289 -2
-425 -22 -257 -39 -301 -53 -580 -175 -227 -99 -389 -197 -545 -327 -209 -176
-331 -307 -440 -475 -67 -101 -91 -156 -140 -316 -44 -142 -59 -277 -52 -449
4 -114 9 -146 32 -205 15 -38 44 -115 65 -170 58 -153 210 -459 332 -669 83
-143 138 -224 226 -330 114 -139 279 -328 398 -456 33 -36 108 -119 166 -185
113 -128 410 -424 518 -516 246 -210 604 -397 906 -473 199 -50 317 -66 493
-66 313 0 590 37 896 119 83 22 191 49 240 60 100 22 271 83 385 137 41 20
113 52 160 71 144 59 346 157 585 283 125 66 231 120 234 120 3 0 41 23 85 50
43 28 131 81 195 117 64 36 166 101 226 143 61 43 141 96 179 119 57 35 273
189 368 263 l27 21 98 -67 c54 -37 116 -80 138 -95 22 -16 101 -66 175 -111
74 -46 178 -111 230 -145 91 -60 195 -115 450 -238 118 -56 331 -147 346 -147
5 0 21 -7 36 -14 39 -20 174 -66 207 -71 14 -1 65 -14 111 -28 82 -25 164 -41
377 -72 115 -17 362 -19 518 -5 215 20 282 29 322 44 24 8 95 29 160 46 106
29 326 117 428 172 22 12 83 49 135 83 52 34 101 64 108 66 17 6 140 117 267
244 107 105 179 201 248 325 22 41 57 98 77 125 39 53 141 278 161 355 30 114
41 184 46 292 6 115 5 118 -32 233 -21 64 -54 142 -73 173 -19 31 -40 71 -48
88 -7 17 -29 52 -49 78 -19 25 -35 50 -35 55 0 5 -15 29 -33 53 -39 52 -178
261 -201 303 -27 49 -67 107 -130 190 -32 42 -81 116 -109 164 -44 74 -117
178 -152 217 -5 7 -27 34 -47 60 -253 330 -492 621 -564 684 -16 14 -47 46
-69 70 -97 108 -340 319 -423 368 -32 19 -64 40 -72 47 -16 14 -166 85 -180
85 -4 0 -21 7 -36 15 -16 8 -37 15 -47 15 -10 0 -34 7 -55 16 -20 8 -64 22
-97 29 -33 8 -78 19 -100 25 -128 36 -389 80 -504 85 -69 3 -137 7 -151 8 -14
2 -95 0 -180 -4z m-4549 -1839 c72 -7 303 -58 422 -93 10 -3 -319 -232 -395
-274 -32 -18 -99 -63 -150 -99 -270 -196 -972 -574 -1198 -647 -255 -81 -388
-111 -552 -124 -65 -5 -78 -3 -78 9 0 8 14 61 31 117 31 103 103 250 157 319
16 20 36 51 45 67 19 38 168 199 266 288 143 131 424 299 612 365 166 59 597
96 840 72z m6483 -327 c-6 -38 -75 -221 -96 -258 -6 -11 -22 -42 -36 -70 -56
-114 -285 -395 -382 -470 -21 -16 -55 -43 -74 -59 -80 -64 -411 -231 -506
-256 -84 -21 -215 -63 -224 -71 -6 -5 -28 -9 -51 -9 -22 0 -65 -6 -95 -14
-168 -44 -564 -56 -710 -22 -41 9 -114 24 -162 32 -144 24 -144 24 -63 75 38
24 158 103 267 174 276 181 329 215 443 280 55 32 154 92 220 133 103 64 222
132 390 221 22 12 85 43 140 69 55 27 136 67 180 90 166 84 555 189 708 191
l58 1 -7 -37z"/>
</g>
</svg>
